<svg xmlns="http://www.w3.org/2000/svg" viewBox="-70.1 -69.6 1273.0 744.2">
 <g stroke="#0C0C0C" stroke-width="12.0">
  <line x1="214.0" y1="33.0" x2="327.5" y2="62.5"/>
  <line x1="214.0" y1="33.0" x2="137.5" y2="134.0"/>
  <line x1="439.7" y1="36.7" x2="327.5" y2="62.5"/>
  <line x1="439.7" y1="36.7" x2="505.0" y2="133.5"/>
  <line x1="327.5" y1="62.5" x2="260.5" y2="166.5"/>
  <line x1="327.5" y1="62.5" x2="381.0" y2="167.0"/>
  <line x1="137.5" y1="134.0" x2="260.5" y2="166.5"/>
  <line x1="137.5" y1="134.0" x2="32.5" y2="205.0"/>
  <line x1="137.5" y1="134.0" x2="172.5" y2="253.0"/>
  <line x1="32.5" y1="205.0" x2="59.5" y2="316.0"/>
  <line x1="59.5" y1="316.0" x2="169.8" y2="373.4"/>
  <line x1="59.5" y1="316.0" x2="43.5" y2="431.0"/>
  <line x1="169.8" y1="373.4" x2="151.5" y2="490.0"/>
  <line x1="43.5" y1="431.0" x2="151.5" y2="490.0"/>
  <line x1="273.0" y1="443.5" x2="336.5" y2="544.5"/>
  <line x1="395.7" y1="438.7" x2="511.5" y2="462.0"/>
  <line x1="395.7" y1="438.7" x2="336.5" y2="544.5"/>
  <line x1="511.5" y1="462.0" x2="450.7" y2="559.3"/>
  <line x1="151.5" y1="490.0" x2="226.5" y2="572.0"/>
  <line x1="336.5" y1="544.5" x2="450.7" y2="559.3"/>
  <line x1="336.5" y1="544.5" x2="226.5" y2="572.0"/>
 </g>
 <g fill="#0C0C0C">
  <circle cx="214.0" cy="33.0" r="30.6"/>
  <circle cx="439.7" cy="36.7" r="30.6"/>
  <circle cx="327.5" cy="62.5" r="39.1"/>
  <circle cx="137.5" cy="134.0" r="39.1"/>
  <circle cx="505.0" cy="133.5" r="39.1"/>
  <circle cx="260.5" cy="166.5" r="23.5"/>
  <circle cx="381.0" cy="167.0" r="23.5"/>
  <circle cx="32.5" cy="205.0" r="30.6"/>
  <circle cx="172.5" cy="253.0" r="23.5"/>
  <circle cx="59.5" cy="316.0" r="39.1"/>
  <circle cx="169.8" cy="373.4" r="23.5"/>
  <circle cx="43.5" cy="431.0" r="30.6"/>
  <circle cx="273.0" cy="443.5" r="23.5"/>
  <circle cx="395.7" cy="438.7" r="23.5"/>
  <circle cx="511.5" cy="462.0" r="39.1"/>
  <circle cx="151.5" cy="490.0" r="39.1"/>
  <circle cx="336.5" cy="544.5" r="39.1"/>
  <circle cx="450.7" cy="559.3" r="30.6"/>
  <circle cx="226.5" cy="572.0" r="30.6"/>
 </g>
 <g fill="#0C0C0C">
  <g transform="translate(227.91,391.24) scale(0.12929,-0.12929)"><path d="M168 0V1337H449L825 422L1188 1337H1450V0H1208V1075L756 -49L283 1075V0Z"/></g>
  <g transform="translate(418.48,391.24) scale(0.08655,-0.08655)"><path d="M172 0V1337H999V1237H420V748H958V647H420V100H999V0Z"/></g>
  <g transform="translate(508.05,391.24) scale(0.08655,-0.08655)"><path d="M418 1237V100H565Q686 100 764.5 121.5Q843 143 895 188Q977 260 1021.0 384.5Q1065 509 1065 672Q1065 945 922.5 1091.0Q780 1237 512 1237ZM172 0V1337H500Q891 1337 1111.0 1151.5Q1331 966 1331 639Q1331 351 1151.5 175.5Q972 0 678 0Z"/></g>
  <g transform="translate(625.84,391.24) scale(0.08655,-0.08655)"><path d="M424 0H178V1337H424Z"/></g>
  <g transform="translate(660.11,391.24) scale(0.12929,-0.12929)"><path d="M535 -33 -20 1337H242L598 426L936 1337H1065Z"/></g>
  <g transform="translate(761.12,391.24) scale(0.08655,-0.08655)"><path d="M279 440H668L473 928ZM-12 0 537 1364 1108 0H844L705 356H244L106 0Z"/></g>
  <g transform="translate(859.84,391.24) scale(0.08655,-0.08655)"><path d="M199 254Q243 170 311.5 123.0Q380 76 459 76Q566 76 633.0 143.5Q700 211 700 317Q700 486 401 609L398 610Q237 676 169.5 759.0Q102 842 102 969Q102 1143 218.0 1254.5Q334 1366 518 1366Q656 1366 759.5 1304.0Q863 1242 913 1128L825 1069Q792 1163 726.0 1213.5Q660 1264 569 1264Q472 1264 410.0 1201.5Q348 1139 348 1038Q348 958 399.0 902.0Q450 846 590 786Q811 691 881.5 604.0Q952 517 952 381Q952 201 827.5 84.0Q703 -33 512 -33Q374 -33 274.0 20.0Q174 73 100 184Z"/></g>
  <g transform="translate(951.39,391.24) scale(0.08655,-0.08655)"><path d="M1257 317Q1179 148 1039.5 57.5Q900 -33 715 -33Q440 -33 258.0 164.0Q76 361 76 668Q76 967 262.5 1166.5Q449 1366 725 1366Q893 1366 1016.5 1297.0Q1140 1228 1221 1090L1141 1034Q1079 1156 987.5 1217.0Q896 1278 776 1278Q575 1278 457.5 1112.0Q340 946 340 659Q340 382 452.0 229.0Q564 76 766 76Q901 76 1005.5 150.5Q1110 225 1176 369Z"/></g>
 </g>
 <g fill="#0C0C0C">
  <g transform="translate(1049.85,283.75) scale(0.02853,-0.02853)"><path d="M1112 1221H788V156Q788 64 747.0 19.5Q706 -25 641 -25Q575 -25 533.5 20.0Q492 65 492 156V1221H168Q92 1221 55.0 1254.5Q18 1288 18 1343Q18 1400 56.5 1433.0Q95 1466 168 1466H1112Q1189 1466 1226.5 1432.0Q1264 1398 1264 1343Q1264 1288 1226.0 1254.5Q1188 1221 1112 1221Z"/></g>
  <g transform="translate(1086.37,283.75) scale(0.02853,-0.02853)"><path d="M655 221 420 1155V143Q420 59 382.5 17.0Q345 -25 283 -25Q223 -25 185.0 16.5Q147 58 147 143V1303Q147 1399 197.0 1432.5Q247 1466 332 1466H424Q507 1466 544.5 1451.0Q582 1436 600.0 1397.0Q618 1358 641 1270L854 467L1067 1270Q1090 1358 1108.0 1397.0Q1126 1436 1163.5 1451.0Q1201 1466 1284 1466H1376Q1461 1466 1511.0 1432.5Q1561 1399 1561 1303V143Q1561 59 1523.5 17.0Q1486 -25 1423 -25Q1364 -25 1326.0 17.0Q1288 59 1288 143V1155L1053 221Q1030 130 1015.5 87.5Q1001 45 962.0 10.0Q923 -25 854 -25Q802 -25 766.0 -2.5Q730 20 710.0 55.0Q690 90 678.5 132.5Q667 175 655 221Z"/></g>
 </g>
</svg>